<svg xmlns="http://www.w3.org/2000/svg" xmlns:xlink="http://www.w3.org/1999/xlink" width="35" height="35" viewBox="3.833 3.833 592.665 592.665" xmlns:v="https://vecta.io/nano"><circle fill="#006400" cx="300.166" cy="300.166" r="296.332"/><path fill="#ffd200" d="M9.524 242.167v115.998c12.064 60.794 42.714 114.895 85.795 156.121h409.693c56.374-53.947 91.486-129.932 91.486-214.12 0-84.359-35.25-160.485-91.825-214.452H95.659C52.397 126.982 21.62 181.211 9.524 242.167z"/><path fill="#d40000" d="M9.524 242.167v115.998c4.904 24.712 12.865 48.322 23.5 70.406h534.285c18.707-38.848 29.19-82.402 29.19-128.405 0-46.135-10.545-89.805-29.353-128.737H33.187c-10.715 22.179-18.734 45.902-23.663 70.738z"/><path d="M9.524 342.857h583.901c2.012-13.942 3.073-28.192 3.073-42.691 0-14.614-1.076-28.976-3.12-43.023H9.524v85.714z"/><path fill="#fff" d="M3.833 300.166c0 88.352 38.68 167.657 100.013 221.949L400 300 104.049 78.037C42.599 132.333 3.833 211.717 3.833 300.166z"/><path fill="#d40000" d="M200.817 300.002l78.373-56.94h-96.874l-29.935-92.133-29.936 92.133H25.571l78.373 56.94-29.934 92.131 78.371-56.94 78.371 56.94z"/><path fill="#ffd200" d="M109.048 218.095c-.857-2.143-.714-4.524.381-6.571a7.59 7.59 0 0 1 5.381-3.81c2.429-.429 4.857-.571 7.333-.524 2.333-3.619 6.238-5.952 10.523-6.286a13.88 13.88 0 0 1 11.333 4.667c3.381 3.857 5.381 8.714 5.81 13.81l1.762 22.095 67.238 52.619c1.757 1.424 2.028 4.002.604 5.76-1.014 1.251-2.666 1.792-4.224 1.383l-2.81-.81c-10.81 6.714-18.81 18.429-20.381 31l-4.048 32h-71.095l-9.428-36.619c-3.381-4.095-3.857-9.857-1.19-14.429a85.44 85.44 0 0 1 12.476-16.429c3.143-3.143 4.571-7.619 3.952-12.047-.667-4.381-1-8.81-1.047-13.238-.048-3.667.762-7.333 2.333-10.619L123.048 227c-.143-3.905-2.286-7.476-5.667-9.381l-8.333.476z"/><path d="M187.952 364.429h-71.095a1 1 0 0 1-.968-.751l-9.374-36.407c-3.503-4.391-3.968-10.547-1.14-15.394 3.523-6.033 7.77-11.625 12.623-16.622 2.886-2.886 4.258-7.074 3.679-11.212-.652-4.284-1.008-8.785-1.057-13.366-.048-3.725.755-7.468 2.327-10.84l-.897-32.81c-.126-3.446-2-6.639-4.911-8.393l-8.033.459c-.427.015-.826-.228-.985-.627-.962-2.405-.807-5.108.427-7.415a8.61 8.61 0 0 1 6.098-4.324c2.188-.386 4.479-.567 6.97-.545 2.523-3.601 6.584-5.934 10.974-6.275a14.84 14.84 0 0 1 1.002-.034c4.268 0 8.335 1.835 11.159 5.036 3.507 4.002 5.601 8.976 6.056 14.387l1.727 21.662 66.893 52.349c2.196 1.779 2.534 4.994.765 7.177-1.246 1.539-3.334 2.227-5.254 1.721l-2.402-.691c-10.59 6.734-18.063 18.204-19.542 30.039l-4.048 32.002c-.065.499-.49.874-.994.874zm-70.32-2h69.439l3.937-31.126c1.569-12.556 9.557-24.712 20.845-31.724a1 1 0 0 1 .805-.111l2.81.81c.234.062.499.096.764.096.938 0 1.815-.418 2.406-1.147a3.1 3.1 0 0 0-.457-4.354l-67.225-52.608a1 1 0 0 1-.38-.708l-1.762-22.095c-.413-4.907-2.389-9.607-5.564-13.23a12.91 12.91 0 0 0-10.515-4.328c-3.946.307-7.594 2.487-9.75 5.83-.188.291-.516.46-.859.458-2.548-.048-4.912.116-7.141.509a6.6 6.6 0 0 0-4.678 3.305 6.79 6.79 0 0 0-.558 5.049l7.576-.433a.99.99 0 0 1 .548.127c3.654 2.059 6.02 5.973 6.176 10.215l.904 33.057a1.01 1.01 0 0 1-.097.459c-1.508 3.153-2.281 6.671-2.235 10.174.048 4.491.396 8.898 1.036 13.101.667 4.768-.917 9.588-4.234 12.905-4.729 4.87-8.878 10.333-12.32 16.226-2.445 4.191-2.003 9.531 1.098 13.288a.98.98 0 0 1 .197.388l9.234 35.867z"/><path d="M127.905 364.429a1 1 0 0 1-1-1v-13.69l-5.952-17.31h-12.334a1 1 0 1 1 0-2h5.059c-1.873-1.757-3.272-3.707-4.23-5.898l-1.094 2.659a1 1 0 0 1-1.305.545 1 1 0 0 1-.544-1.305l2.095-5.095c.163-.397.56-.636.99-.618a1 1 0 0 1 .901.741c.611 2.298 1.68 4.327 3.243 6.144-.91-9.237 3.109-22.943 15.936-28.982 7.137-3.331 7.97-11.073 7.997-14.247 0-2.056 0-5.176 3.679-6.636a1 1 0 0 1 1.298.561 1 1 0 0 1-.561 1.298c-2.248.892-2.417 2.474-2.417 4.785-.03 3.562-.982 12.238-9.148 16.049-11.796 5.553-15.576 18.078-14.832 26.645.908-2.099 1.733-4.225 2.463-6.352a1 1 0 0 1 .879-.674 1.01 1.01 0 0 1 .961.551c.661 1.321 1.248 2.882 1.755 4.444 1.251-5.109 4.537-9.244 9.229-11.339l11.726-5.215a1 1 0 0 1 .275-.122l8.667-3.854c2.34-1.046 6.756-3.461 10.073-7.894.056-.119.133-.223.226-.308a21.02 21.02 0 0 0 3.573-8.145l-13.311-3.777c-4.083-1.17-7.529-3.971-9.458-7.684-1.86-3.58-2.122-7.752-.738-11.748a1 1 0 1 1 1.89.654c-1.541 4.45-.512 7.987.623 10.172 1.676 3.228 4.677 5.664 8.231 6.683l13.963 3.962a1.11 1.11 0 0 1 .113.012c.117.019.226.058.324.112l16.593 4.709a1.3 1.3 0 0 1 .102.029l28.808 8.175a1 1 0 0 1 .689 1.235c-.15.53-.701.843-1.235.688l-28.057-7.962c-4.227 7.96-13.303 6.852-21.022 4.769-2.627 3.4-6.219 6.199-10.573 8.145l-4.48 1.992H202a1 1 0 1 1 0 2h-58.522l-11.691 5.199c-5.467 2.44-8.762 8.084-8.597 14.728a1.04 1.04 0 0 1-.01.168H192a1 1 0 0 1 .231 1.974c.085.045.166.104.238.176a1 1 0 0 1 0 1.414l-5.905 5.905a1.03 1.03 0 0 1-1.414 0l-5.388-5.388-5.388 5.388a1 1 0 0 1-1.414 0l-5.388-5.388-5.388 5.388a1 1 0 0 1-1.414 0l-5.388-5.388-5.388 5.388a1 1 0 0 1-1.414 0l-5.388-5.388-5.388 5.388a1 1 0 0 1-1.414 0L131 334.51l-5.37 5.37 1.506 4.38 3.157-3.157a1.03 1.03 0 0 1 1.414 0l5.388 5.388 5.388-5.388a1 1 0 0 1 1.414 0l5.388 5.388 5.388-5.388a1 1 0 0 1 1.414 0l5.388 5.388 5.388-5.388a1 1 0 0 1 1.414 0l5.388 5.388 5.388-5.388a1 1 0 0 1 1.414 0l5.388 5.388 3.912-3.912a1 1 0 0 1 1.414 1.414l-4.579 4.579h3.063a1 1 0 1 1 0 2h-60.762v12.857a1 1 0 0 1-.998 1zm46.509-15.858h10.696l-5.348-5.348-5.348 5.348zm-12.191 0h10.696l-5.348-5.348-5.348 5.348zm-12.19 0h10.696l-5.348-5.348-5.348 5.348zm-12.191 0h10.696l-5.348-5.348-5.348 5.348zm-9.224 0h7.73L131 343.224l-3.14 3.141.758 2.206zm27.51-16.142l5.348 5.348 5.348-5.348h-10.696zm-24.381 0l5.348 5.348 5.348-5.348h-10.696zm36.571 0l5.348 5.348 5.348-5.348h-10.696zm-24.38 0l5.348 5.348 5.348-5.348h-10.696zm36.571 0l5.348 5.348 5.198-5.198a1.02 1.02 0 0 1 .19-.149h-10.736zm-57.441 0l1.838 5.347 5.347-5.347h-7.185zm-6.701-2h4.828c-.487-1.914-1.168-4.426-2.015-6.662-.843 2.243-1.785 4.473-2.813 6.662zm47.891-33.977c9.523 2.439 14.972 1.349 17.818-3.583l-14.634-4.153a23.37 23.37 0 0 1-3.184 7.736zm-40.305-35.404a1 1 0 0 1-.559-1.83l27.619-18.572a1 1 0 1 1 1.116 1.66l-27.619 18.572c-.171.115-.365.17-.557.17zm-6.573-42.429a1 1 0 0 1-.059-1.998l7.953-.476c.542-.045 1.024.387 1.058.938a1 1 0 0 1-.938 1.058l-7.953.476c-.021.002-.041.002-.061.002zm15.906-1.667c-2.547 0-4.619-2.072-4.619-4.619s2.072-4.619 4.619-4.619 4.619 2.072 4.619 4.619-2.072 4.619-4.619 4.619zm0-7.238c-1.444 0-2.619 1.175-2.619 2.619s1.175 2.619 2.619 2.619 2.619-1.175 2.619-2.619-1.175-2.619-2.619-2.619z"/><use xlink:href="#B"/><use xlink:href="#B" x="27.381"/><path d="M100.446,519.059L392.5,300L100.623,81.112l3.426-3.075l3.456-3.033L407.5,300L107.299,525.151l-2.611-2.308"/><defs><path id="B" d="M149.476 328.381c-4.359 0-7.905-3.546-7.905-7.904s3.546-7.905 7.905-7.905 7.905 3.546 7.905 7.905-3.546 7.904-7.905 7.904zm0-13.81c-3.256 0-5.905 2.649-5.905 5.905s2.649 5.904 5.905 5.904 5.905-2.648 5.905-5.904-2.649-5.905-5.905-5.905z"/></defs></svg>